<?xml version="1.0" encoding="UTF-8"?>
<svg version="1.1" xmlns="http://www.w3.org/2000/svg" width="1080" height="1080">
<path d="M0 0 C4.12742509 0.01709079 8.25426945 0.00692047 12.38167477 -0.01032925 C32.11710479 -0.08012108 51.36771845 0.72862435 70.95507812 3.39111328 C72.69899841 3.62246475 72.69899841 3.62246475 74.47814941 3.85848999 C116.65428591 9.47895797 157.58042494 20.21567691 197.26757812 35.51611328 C198.21278824 35.87882828 198.21278824 35.87882828 199.17709351 36.24887085 C208.64326846 39.89744608 217.80179735 44.03650498 226.95507812 48.39111328 C228.564337 49.13507413 230.1747666 49.87651609 231.78710938 50.61376953 C238.56310945 53.73630874 245.11464997 56.91903264 251.43945312 60.89892578 C254.50756539 62.71883088 257.68664122 64.27135808 260.89257812 65.82861328 C266.14756564 68.40093564 271.10182796 71.23774533 275.99023438 74.45361328 C278.21131736 75.90507199 280.44042425 77.3165818 282.70117188 78.70361328 C291.17116038 83.90332801 299.35771161 89.36248985 307.375 95.23583984 C308.84913 96.31364935 310.33149153 97.38017538 311.81445312 98.44580078 C317.92068328 102.84016873 323.90713346 107.37680572 329.84960938 111.98876953 C331.81594389 113.50989623 333.79147071 115.01927535 335.77929688 116.51220703 C336.60042969 117.13224609 337.4215625 117.75228516 338.26757812 118.39111328 C339.34458984 119.19548828 339.34458984 119.19548828 340.44335938 120.01611328 C340.94222656 120.46986328 341.44109375 120.92361328 341.95507812 121.39111328 C341.95507812 122.05111328 341.95507812 122.71111328 341.95507812 123.39111328 C342.7671875 123.74689453 342.7671875 123.74689453 343.59570312 124.10986328 C346.5875795 125.73459085 349.06667211 127.74130098 351.70507812 129.89111328 C353.18234375 131.08220703 353.18234375 131.08220703 354.68945312 132.29736328 C355.8109375 133.33376953 355.8109375 133.33376953 356.95507812 134.39111328 C356.95507812 135.05111328 356.95507812 135.71111328 356.95507812 136.39111328 C357.61507812 136.39111328 358.27507813 136.39111328 358.95507812 136.39111328 C358.95507812 137.05111328 358.95507812 137.71111328 358.95507812 138.39111328 C359.79039062 138.76236328 359.79039062 138.76236328 360.64257812 139.14111328 C363.37918726 140.62036146 365.63158682 142.32578768 367.95507812 144.39111328 C367.95507812 145.05111328 367.95507812 145.71111328 367.95507812 146.39111328 C368.61507812 146.39111328 369.27507813 146.39111328 369.95507812 146.39111328 C371.47070312 147.96533203 371.47070312 147.96533203 373.20507812 150.07861328 C375.45583541 152.74460461 377.65557357 155.1012142 380.39257812 157.26611328 C381.23820313 157.96736328 382.08382812 158.66861328 382.95507812 159.39111328 C382.95507812 160.05111328 382.95507812 160.71111328 382.95507812 161.39111328 C383.61507812 161.39111328 384.27507813 161.39111328 384.95507812 161.39111328 C386.46289063 162.85205078 386.46289063 162.85205078 388.08007812 164.76611328 C388.61890625 165.39259766 389.15773438 166.01908203 389.71289062 166.66455078 C390.95507812 168.39111328 390.95507812 168.39111328 390.95507812 170.39111328 C391.61507812 170.39111328 392.27507813 170.39111328 392.95507812 170.39111328 C392.95507812 171.05111328 392.95507812 171.71111328 392.95507812 172.39111328 C393.51710938 172.60767578 394.07914063 172.82423828 394.65820312 173.04736328 C397.72544577 174.84180456 399.48168385 177.13003542 401.70507812 179.89111328 C402.90390625 181.36064453 402.90390625 181.36064453 404.12695312 182.85986328 C405.95507812 185.39111328 405.95507812 185.39111328 405.95507812 187.39111328 C406.61507812 187.39111328 407.27507813 187.39111328 407.95507812 187.39111328 C409.64449525 189.33286594 411.21254457 191.28244441 412.76757812 193.32861328 C413.24751221 193.95106934 413.72744629 194.57352539 414.22192383 195.21484375 C415.25969935 196.5627036 416.29466116 197.91273342 417.32714844 199.26464844 C418.97151955 201.41258971 420.6297417 203.54919507 422.29101562 205.68408203 C428.52208319 213.7191661 434.4267881 221.85138893 439.95507812 230.39111328 C441.65626944 232.95839067 443.36873495 235.51809648 445.08007812 238.07861328 C445.93169546 239.35852471 446.78325964 240.63847152 447.63476562 241.91845703 C448.98207652 243.94051079 450.33976209 245.95275187 451.71289062 247.95751953 C455.5450133 253.56525926 458.78717659 259.38617992 461.95507812 265.39111328 C462.7284017 266.84560094 463.50184856 268.30002306 464.27539062 269.75439453 C469.34287927 279.30896761 474.27492418 288.92128768 479.06884766 298.61572266 C479.90081367 300.28240498 480.7534251 301.93873626 481.60742188 303.59423828 C484.5932133 309.39867759 487.14242857 315.21393019 489.41210938 321.33251953 C490.64054295 324.61603614 491.95196897 327.86120193 493.27929688 331.10595703 C501.97279877 352.37946754 508.25918111 373.81190994 514.06176758 396.01416016 C514.87404211 399.08477544 515.71796637 402.14448978 516.57226562 405.20361328 C517.90219156 410.0649986 518.96962579 414.93748985 519.89257812 419.89111328 C520.05878662 420.77855225 520.22499512 421.66599121 520.39624023 422.58032227 C522.57375306 434.47021736 524.32209017 446.41591852 525.95507812 458.39111328 C526.16846832 459.94378151 526.16846832 459.94378151 526.38616943 461.52781677 C528.9610314 480.86856355 529.42757037 499.9605207 529.34619141 519.43603516 C529.32910062 523.56346025 529.33927094 527.69030461 529.35652065 531.81770992 C529.42631249 551.55313994 528.61756706 570.80375361 525.95507812 590.39111328 C525.80084381 591.55372681 525.6466095 592.71634033 525.48770142 593.91418457 C519.86723344 636.09032107 509.1305145 677.01646009 493.83007812 716.70361328 C493.58826813 717.33375336 493.34645813 717.96389343 493.09732056 718.61312866 C489.44874532 728.07930362 485.30968643 737.23783251 480.95507812 746.39111328 C480.21111728 748.00037216 479.46967532 749.61080176 478.73242188 751.22314453 C475.60988266 757.99914461 472.42715876 764.55068513 468.44726562 770.87548828 C466.62736053 773.94360054 465.07483332 777.12267638 463.51757812 780.32861328 C460.94525576 785.58360079 458.10844608 790.53786312 454.89257812 795.42626953 C453.44111942 797.64735251 452.0296096 799.87645941 450.64257812 802.13720703 C445.4428634 810.60719554 439.98370156 818.79374677 434.11035156 826.81103516 C433.03254205 828.28516515 431.96601603 829.76752669 430.90039062 831.25048828 C426.50602268 837.35671844 421.96938568 843.34316861 417.35742188 849.28564453 C415.83629518 851.25197904 414.32691606 853.22750587 412.83398438 855.21533203 C412.21394531 856.03646484 411.59390625 856.85759766 410.95507812 857.70361328 C410.15070313 858.780625 410.15070313 858.780625 409.33007812 859.87939453 C408.87632812 860.37826172 408.42257812 860.87712891 407.95507812 861.39111328 C407.29507813 861.39111328 406.63507812 861.39111328 405.95507812 861.39111328 C405.71789062 861.93251953 405.48070312 862.47392578 405.23632812 863.03173828 C403.61160056 866.02361466 401.60489043 868.50270727 399.45507812 871.14111328 C398.26398438 872.61837891 398.26398438 872.61837891 397.04882812 874.12548828 C396.01242187 875.24697266 396.01242187 875.24697266 394.95507812 876.39111328 C394.29507813 876.39111328 393.63507812 876.39111328 392.95507812 876.39111328 C392.95507812 877.05111328 392.95507812 877.71111328 392.95507812 878.39111328 C392.29507813 878.39111328 391.63507812 878.39111328 390.95507812 878.39111328 C390.70757813 878.94798828 390.46007812 879.50486328 390.20507812 880.07861328 C388.72582994 882.81522241 387.02040373 885.06762197 384.95507812 887.39111328 C384.29507813 887.39111328 383.63507812 887.39111328 382.95507812 887.39111328 C382.95507812 888.05111328 382.95507812 888.71111328 382.95507812 889.39111328 C381.38085938 890.90673828 381.38085938 890.90673828 379.26757812 892.64111328 C376.60158679 894.89187056 374.24497721 897.09160873 372.08007812 899.82861328 C371.37882813 900.67423828 370.67757812 901.51986328 369.95507812 902.39111328 C369.29507813 902.39111328 368.63507812 902.39111328 367.95507812 902.39111328 C367.95507812 903.05111328 367.95507812 903.71111328 367.95507812 904.39111328 C366.49414063 905.89892578 366.49414063 905.89892578 364.58007812 907.51611328 C363.64035156 908.32435547 363.64035156 908.32435547 362.68164062 909.14892578 C360.95507813 910.39111328 360.95507813 910.39111328 358.95507812 910.39111328 C358.95507812 911.05111328 358.95507812 911.71111328 358.95507812 912.39111328 C358.29507813 912.39111328 357.63507812 912.39111328 356.95507812 912.39111328 C356.63023437 913.23416016 356.63023437 913.23416016 356.29882812 914.09423828 C354.50438685 917.16148093 352.21615599 918.917719 349.45507812 921.14111328 C348.47539063 921.94033203 347.49570312 922.73955078 346.48632812 923.56298828 C343.95507812 925.39111328 343.95507812 925.39111328 341.95507812 925.39111328 C341.95507812 926.05111328 341.95507812 926.71111328 341.95507812 927.39111328 C340.01332547 929.08053041 338.063747 930.64857972 336.01757812 932.20361328 C335.08389404 932.9235144 335.08389404 932.9235144 334.13134766 933.65795898 C332.78348781 934.69573451 331.43345799 935.73069631 330.08154297 936.76318359 C327.9336017 938.4075547 325.79699634 940.06577685 323.66210938 941.72705078 C315.62702531 947.95811834 307.49480248 953.86282325 298.95507812 959.39111328 C296.38780074 961.0923046 293.82809493 962.8047701 291.26757812 964.51611328 C289.9876667 965.36773062 288.70771989 966.2192948 287.42773438 967.07080078 C285.40568062 968.41811168 283.39343953 969.77579725 281.38867188 971.14892578 C275.78093214 974.98104846 269.96001149 978.22321174 263.95507812 981.39111328 C262.50059047 982.16443686 261.04616835 982.93788371 259.59179688 983.71142578 C250.0372238 988.77891443 240.42490373 993.71095934 230.73046875 998.50488281 C229.06378642 999.33684883 227.40745515 1000.18946026 225.75195312 1001.04345703 C219.94751382 1004.02924845 214.13226122 1006.57846373 208.01367188 1008.84814453 C204.73015527 1010.07657811 201.48498947 1011.38800413 198.24023438 1012.71533203 C176.96672387 1021.40883392 155.53428147 1027.69521627 133.33203125 1033.49780273 C130.26141596 1034.31007727 127.20170163 1035.15400153 124.14257812 1036.00830078 C119.2811928 1037.33822672 114.40870155 1038.40566094 109.45507812 1039.32861328 C108.12391968 1039.57792603 108.12391968 1039.57792603 106.76586914 1039.83227539 C94.87597405 1042.00978822 82.93027288 1043.75812533 70.95507812 1045.39111328 C69.4024099 1045.60450348 69.4024099 1045.60450348 67.81837463 1045.82220459 C48.47762785 1048.39706655 29.3856707 1048.86360553 9.91015625 1048.78222656 C5.78273116 1048.76513578 1.6558868 1048.7753061 -2.47151852 1048.79255581 C-22.20694854 1048.86234764 -41.4575622 1048.05360222 -61.04492188 1045.39111328 C-62.2075354 1045.23687897 -63.37014893 1045.08264465 -64.56799316 1044.92373657 C-106.74412966 1039.3032686 -147.67026869 1028.56654966 -187.35742188 1013.26611328 C-187.98756195 1013.02430328 -188.61770203 1012.78249329 -189.26693726 1012.53335571 C-198.73311221 1008.88478048 -207.8916411 1004.74572159 -217.04492188 1000.39111328 C-218.65418075 999.64715244 -220.26461035 998.90571048 -221.87695312 998.16845703 C-228.6529532 995.04591782 -235.20449372 991.86319392 -241.52929688 987.88330078 C-244.59740914 986.06339568 -247.77648497 984.51086848 -250.98242188 982.95361328 C-256.23740939 980.38129092 -261.19167171 977.54448123 -266.08007812 974.32861328 C-268.30116111 972.87715457 -270.530268 971.46564476 -272.79101562 970.07861328 C-281.26100413 964.87889855 -289.44755536 959.41973671 -297.46484375 953.54638672 C-298.93897375 952.46857721 -300.42133528 951.40205119 -301.90429688 950.33642578 C-308.01052703 945.94205784 -313.99697721 941.40542084 -319.93945312 936.79345703 C-321.90578764 935.27233033 -323.88131446 933.76295121 -325.86914062 932.27001953 C-326.69027344 931.64998047 -327.51140625 931.02994141 -328.35742188 930.39111328 C-329.07542969 929.85486328 -329.7934375 929.31861328 -330.53320312 928.76611328 C-331.28150391 928.08548828 -331.28150391 928.08548828 -332.04492188 927.39111328 C-332.04492188 926.73111328 -332.04492188 926.07111328 -332.04492188 925.39111328 C-332.85703125 925.03533203 -332.85703125 925.03533203 -333.68554688 924.67236328 C-336.67742325 923.04763571 -339.15651586 921.04092559 -341.79492188 918.89111328 C-342.77976562 918.09705078 -343.76460937 917.30298828 -344.77929688 916.48486328 C-345.90078125 915.44845703 -345.90078125 915.44845703 -347.04492188 914.39111328 C-347.04492188 913.73111328 -347.04492188 913.07111328 -347.04492188 912.39111328 C-347.70492187 912.39111328 -348.36492187 912.39111328 -349.04492188 912.39111328 C-349.04492188 911.73111328 -349.04492188 911.07111328 -349.04492188 910.39111328 C-349.60179687 910.14361328 -350.15867187 909.89611328 -350.73242188 909.64111328 C-353.46903101 908.1618651 -355.72143057 906.45643889 -358.04492188 904.39111328 C-358.04492188 903.73111328 -358.04492188 903.07111328 -358.04492188 902.39111328 C-358.70492187 902.39111328 -359.36492187 902.39111328 -360.04492188 902.39111328 C-361.56054687 900.81689453 -361.56054687 900.81689453 -363.29492188 898.70361328 C-365.54567916 896.03762195 -367.74541732 893.68101237 -370.48242188 891.51611328 C-371.32804688 890.81486328 -372.17367187 890.11361328 -373.04492188 889.39111328 C-373.04492188 888.73111328 -373.04492188 888.07111328 -373.04492188 887.39111328 C-373.70492187 887.39111328 -374.36492187 887.39111328 -375.04492188 887.39111328 C-376.55273437 885.93017578 -376.55273437 885.93017578 -378.16992188 884.01611328 C-378.97816406 883.07638672 -378.97816406 883.07638672 -379.80273438 882.11767578 C-381.04492188 880.39111328 -381.04492188 880.39111328 -381.04492188 878.39111328 C-381.70492187 878.39111328 -382.36492187 878.39111328 -383.04492188 878.39111328 C-383.04492188 877.73111328 -383.04492188 877.07111328 -383.04492188 876.39111328 C-383.60695313 876.17455078 -384.16898438 875.95798828 -384.74804688 875.73486328 C-387.81528952 873.940422 -389.5715276 871.65219114 -391.79492188 868.89111328 C-392.59414063 867.91142578 -393.39335937 866.93173828 -394.21679688 865.92236328 C-396.04492188 863.39111328 -396.04492188 863.39111328 -396.04492188 861.39111328 C-396.70492187 861.39111328 -397.36492187 861.39111328 -398.04492188 861.39111328 C-399.734339 859.44936063 -401.30238832 857.49978215 -402.85742188 855.45361328 C-403.577323 854.5199292 -403.577323 854.5199292 -404.31176758 853.56738281 C-405.3495431 852.21952296 -406.38450491 850.86949315 -407.41699219 849.51757812 C-409.0613633 847.36963686 -410.71958545 845.2330315 -412.38085938 843.09814453 C-418.61192694 835.06306046 -424.51663185 826.93083764 -430.04492188 818.39111328 C-431.74611319 815.82383589 -433.4585787 813.26413008 -435.16992188 810.70361328 C-436.02153921 809.42370185 -436.87310339 808.14375505 -437.72460938 806.86376953 C-439.07192027 804.84171577 -440.42960584 802.82947469 -441.80273438 800.82470703 C-445.63485705 795.2169673 -448.87702034 789.39604664 -452.04492188 783.39111328 C-452.81824545 781.93662562 -453.59169231 780.4822035 -454.36523438 779.02783203 C-459.43272302 769.47325896 -464.36476793 759.86093888 -469.15869141 750.16650391 C-469.99065742 748.49982158 -470.84326885 746.8434903 -471.69726562 745.18798828 C-474.68305705 739.38354898 -477.23227232 733.56829637 -479.50195312 727.44970703 C-480.7303867 724.16619043 -482.04181272 720.92102463 -483.36914062 717.67626953 C-492.06264252 696.40275902 -498.34902486 674.97031662 -504.15161133 652.76806641 C-504.96388586 649.69745112 -505.80781012 646.63773678 -506.66210938 643.57861328 C-507.99203531 638.71722796 -509.05946954 633.84473671 -509.98242188 628.89111328 C-510.14863037 628.00367432 -510.31483887 627.11623535 -510.48608398 626.2019043 C-512.66359681 614.3120092 -514.41193392 602.36630804 -516.04492188 590.39111328 C-516.18718201 589.35600113 -516.32944214 588.32088898 -516.47601318 587.25440979 C-519.05087515 567.91366301 -519.51741412 548.82170586 -519.43603516 529.34619141 C-519.41894437 525.21876631 -519.42911469 521.09192195 -519.4463644 516.96451664 C-519.51615624 497.22908662 -518.70741081 477.97847295 -516.04492188 458.39111328 C-515.8135704 456.64719299 -515.8135704 456.64719299 -515.57754517 454.86804199 C-509.95707719 412.69190549 -499.22035825 371.76576647 -483.91992188 332.07861328 C-483.67811188 331.44847321 -483.43630188 330.81833313 -483.18716431 330.1690979 C-479.53858907 320.70292295 -475.39953018 311.54439405 -471.04492188 302.39111328 C-470.30096103 300.78185441 -469.55951907 299.17142481 -468.82226562 297.55908203 C-465.69972641 290.78308195 -462.51700251 284.23154143 -458.53710938 277.90673828 C-456.71720428 274.83862602 -455.16467707 271.65955019 -453.60742188 268.45361328 C-451.03509951 263.19862577 -448.19828983 258.24436345 -444.98242188 253.35595703 C-443.53096317 251.13487405 -442.11945335 248.90576715 -440.73242188 246.64501953 C-435.53270715 238.17503102 -430.07354531 229.9884798 -424.20019531 221.97119141 C-423.1223858 220.49706141 -422.05585978 219.01469987 -420.99023438 217.53173828 C-416.59586643 211.42550813 -412.05922943 205.43905795 -407.44726562 199.49658203 C-405.92613893 197.53024752 -404.41675981 195.55472069 -402.92382812 193.56689453 C-401.99376953 192.33519531 -401.99376953 192.33519531 -401.04492188 191.07861328 C-400.50867188 190.36060547 -399.97242188 189.64259766 -399.41992188 188.90283203 C-398.73929688 188.15453125 -398.73929688 188.15453125 -398.04492188 187.39111328 C-397.38492188 187.39111328 -396.72492188 187.39111328 -396.04492188 187.39111328 C-395.80773437 186.84970703 -395.57054687 186.30830078 -395.32617188 185.75048828 C-393.70144431 182.75861191 -391.69473418 180.27951929 -389.54492188 177.64111328 C-388.75085938 176.65626953 -387.95679688 175.67142578 -387.13867188 174.65673828 C-386.44773437 173.90908203 -385.75679687 173.16142578 -385.04492188 172.39111328 C-384.38492188 172.39111328 -383.72492188 172.39111328 -383.04492188 172.39111328 C-383.04492188 171.73111328 -383.04492188 171.07111328 -383.04492188 170.39111328 C-382.38492188 170.39111328 -381.72492188 170.39111328 -381.04492188 170.39111328 C-380.79742187 169.83423828 -380.54992187 169.27736328 -380.29492188 168.70361328 C-378.81567369 165.96700415 -377.11024748 163.71460459 -375.04492188 161.39111328 C-374.38492188 161.39111328 -373.72492188 161.39111328 -373.04492188 161.39111328 C-373.04492188 160.73111328 -373.04492188 160.07111328 -373.04492188 159.39111328 C-371.47070312 157.87548828 -371.47070312 157.87548828 -369.35742188 156.14111328 C-366.69143054 153.890356 -364.33482096 151.69061783 -362.16992188 148.95361328 C-361.46867188 148.10798828 -360.76742187 147.26236328 -360.04492188 146.39111328 C-359.38492188 146.39111328 -358.72492188 146.39111328 -358.04492188 146.39111328 C-358.04492188 145.73111328 -358.04492188 145.07111328 -358.04492188 144.39111328 C-356.58398437 142.88330078 -356.58398437 142.88330078 -354.66992188 141.26611328 C-354.0434375 140.72728516 -353.41695312 140.18845703 -352.77148438 139.63330078 C-351.04492188 138.39111328 -351.04492188 138.39111328 -349.04492188 138.39111328 C-349.04492188 137.73111328 -349.04492188 137.07111328 -349.04492188 136.39111328 C-348.38492188 136.39111328 -347.72492188 136.39111328 -347.04492188 136.39111328 C-346.82835937 135.82908203 -346.61179687 135.26705078 -346.38867188 134.68798828 C-344.5942306 131.62074563 -342.30599974 129.86450756 -339.54492188 127.64111328 C-338.56523437 126.84189453 -337.58554687 126.04267578 -336.57617188 125.21923828 C-334.04492188 123.39111328 -334.04492188 123.39111328 -332.04492188 123.39111328 C-332.04492188 122.73111328 -332.04492188 122.07111328 -332.04492188 121.39111328 C-330.10316922 119.70169615 -328.15359075 118.13364684 -326.10742188 116.57861328 C-325.48496582 116.0986792 -324.86250977 115.61874512 -324.22119141 115.12426758 C-322.87333156 114.08649206 -321.52330174 113.05153025 -320.17138672 112.01904297 C-318.02344545 110.37467186 -315.88684009 108.71644971 -313.75195312 107.05517578 C-305.71686906 100.82410822 -297.58464623 94.91940331 -289.04492188 89.39111328 C-286.47764449 87.68992196 -283.91793868 85.97745646 -281.35742188 84.26611328 C-280.07751045 83.41449594 -278.79756364 82.56293177 -277.51757812 81.71142578 C-275.49552437 80.36411489 -273.48328328 79.00642932 -271.47851562 77.63330078 C-265.87077589 73.8011781 -260.04985524 70.55901482 -254.04492188 67.39111328 C-252.59043422 66.6177897 -251.1360121 65.84434285 -249.68164062 65.07080078 C-240.12706755 60.00331213 -230.51474748 55.07126722 -220.8203125 50.27734375 C-219.15363017 49.44537774 -217.4972989 48.59276631 -215.84179688 47.73876953 C-210.03735757 44.75297811 -204.22210497 42.20376283 -198.10351562 39.93408203 C-194.81999902 38.70564846 -191.57483322 37.39422243 -188.33007812 36.06689453 C-167.05656762 27.37339264 -145.62412522 21.08701029 -123.421875 15.28442383 C-120.35125971 14.4721493 -117.29154538 13.62822503 -114.23242188 12.77392578 C-109.37103655 11.44399984 -104.4985453 10.37656562 -99.54492188 9.45361328 C-98.65748291 9.28740479 -97.77004395 9.12119629 -96.85571289 8.94995117 C-84.9658178 6.77243834 -73.02011663 5.02410123 -61.04492188 3.39111328 C-60.00980972 3.24885315 -58.97469757 3.10659302 -57.90821838 2.96002197 C-38.5674716 0.38516001 -19.47551445 -0.08137897 0 0 Z " fill="#009CFF" transform="translate(535.044921875,15.60888671875)"/>
<path d="M0 0 C6.01615368 2.64664125 9.74739092 7.6002506 12.640625 13.38671875 C13.2830473 21.52818595 13.07113229 28.05031992 7.8359375 34.66796875 C4.38205659 38.68229071 0.85374255 42.16492298 -3.359375 45.38671875 C-5.61860316 48.10319477 -5.61860316 48.10319477 -5.17407227 50.65356445 C-4.1806291 53.98637724 -2.82109219 56.97634406 -1.32421875 60.1171875 C-1.01401794 60.77226791 -0.70381714 61.42734833 -0.38421631 62.10227966 C0.63984519 64.26203315 1.67155633 66.41804226 2.703125 68.57421875 C3.42467229 70.09330238 4.14560978 71.61267579 4.8659668 73.13232422 C6.36718893 76.29787864 7.87104396 79.46216097 9.37695312 82.62548828 C12.92278223 90.07791618 16.43920105 97.54420627 19.953125 105.01171875 C20.28948975 105.72645355 20.62585449 106.44118835 20.97241211 107.17758179 C37.7607068 142.86281414 53.74819324 178.86826547 68.640625 215.38671875 C69.1046875 216.52273529 69.1046875 216.52273529 69.578125 217.68170166 C82.81487546 250.11777267 95.29473738 283.08121081 104.89892578 316.79638672 C105.68809448 319.55250256 106.50567812 322.29934879 107.32421875 325.046875 C115.82891124 354.00276206 121.75330071 383.47718832 125.640625 413.38671875 C125.83760986 414.84706543 125.83760986 414.84706543 126.03857422 416.33691406 C129.93298876 445.99563907 129.19423203 477.61829224 120.640625 506.38671875 C120.28226563 507.62292969 119.92390625 508.85914063 119.5546875 510.1328125 C115.44391534 523.389363 109.77829958 535.83488025 100.640625 546.38671875 C99.302668 548.04967594 97.96831893 549.71555617 96.640625 551.38671875 C97.25881104 551.58716797 97.87699707 551.78761719 98.51391602 551.99414062 C123.6463604 560.22312102 150.26522867 571.94202891 163.640625 596.38671875 C159.57701315 595.95133177 155.83755132 595.4372754 151.8671875 594.41796875 C132.59398771 589.49896119 111.12256398 590.14315041 91.640625 593.38671875 C90.44824219 593.56976562 89.25585938 593.7528125 88.02734375 593.94140625 C71.28162855 596.85526862 55.45949646 603.1666976 40.640625 611.38671875 C40.00286133 611.73992188 39.36509766 612.093125 38.70800781 612.45703125 C31.02875353 616.76764749 23.97576184 621.53125728 17.07055664 626.98974609 C8.95468378 633.35647572 0.77703801 636.83465416 -9.671875 636.32421875 C-19.7436194 635.0634997 -27.27865888 630.75587408 -35.0925293 624.4675293 C-69.46941386 597.05954367 -114.08802783 587.49579227 -157.22436523 592.26635742 C-184.3126762 595.85103159 -211.12305528 607.54156291 -232.6328125 624.28125 C-241.92568212 631.4572625 -252.12963044 637.8627224 -264.359375 636.38671875 C-274.07380949 634.32725864 -280.62054906 630.40927281 -288.359375 624.38671875 C-309.56036614 608.92010327 -333.32824473 597.6208774 -359.359375 593.38671875 C-360.59816406 593.18304687 -361.83695312 592.979375 -363.11328125 592.76953125 C-385.01093411 589.53178772 -408.15882503 590.10046528 -429.328125 596.93359375 C-431.359375 597.38671875 -431.359375 597.38671875 -434.359375 596.38671875 C-425.66990271 584.75700207 -415.73949834 574.10127495 -403.359375 566.38671875 C-402.63105469 565.89042969 -401.90273438 565.39414062 -401.15234375 564.8828125 C-393.18418447 559.68382612 -384.24009854 556.65652764 -375.359375 553.38671875 C-375.96523438 552.51273438 -376.57109375 551.63875 -377.1953125 550.73828125 C-411.30175404 500.94439031 -411.30175404 500.94439031 -409.359375 479.38671875 C-407.66168764 473.44966351 -404.39160524 469.80863531 -399.359375 466.38671875 C-395.12546301 464.69714386 -391.59781967 464.13979317 -387.05371094 464.1472168 C-385.21084503 464.14161995 -385.21084503 464.14161995 -383.33074951 464.13591003 C-381.35718475 464.14211113 -381.35718475 464.14211113 -379.34375 464.1484375 C-377.96379848 464.14240939 -376.58385306 464.13479863 -375.20391846 464.12568665 C-369.36948121 464.08876729 -363.53523471 464.06996803 -357.70068359 464.08129883 C-354.12080232 464.0871945 -350.54170423 464.06867737 -346.96198273 464.03540993 C-344.95594143 464.0237269 -342.94980083 464.03870884 -340.94378662 464.05436707 C-331.74447863 463.95662358 -324.81613121 462.50958848 -317.93481445 456.14379883 C-315.76034172 452.33838731 -314.45760554 448.44576273 -313.15234375 444.2734375 C-312.86386063 443.38622513 -312.5753775 442.49901276 -312.27815247 441.58491516 C-311.35756689 438.75117778 -310.45088365 435.91328413 -309.546875 433.07421875 C-298.82608601 399.50651582 -298.82608601 399.50651582 -290.484375 387.44921875 C-290.09507812 386.86205078 -289.70578125 386.27488281 -289.3046875 385.66992188 C-286.61958297 381.64692672 -286.61958297 381.64692672 -285.359375 380.38671875 C-282.78874246 380.27215363 -280.24389319 380.22187388 -277.67211914 380.21313477 C-276.86517609 380.20644775 -276.05823303 380.19976074 -275.22683716 380.19287109 C-273.46333925 380.17877163 -271.69982255 380.16689339 -269.93629646 380.15692329 C-267.11879656 380.14047476 -264.30142801 380.1172179 -261.48399353 380.09202576 C-253.46815647 380.02148046 -245.45225588 379.96212169 -237.4362793 379.90991211 C-198.18764305 379.87028996 -198.18764305 379.87028996 -159.234375 375.51171875 C-158.20489746 375.33809814 -157.17541992 375.16447754 -156.11474609 374.9855957 C-121.50597361 368.9823653 -90.74095956 354.83652707 -65.359375 330.38671875 C-64.67746094 329.76796875 -63.99554687 329.14921875 -63.29296875 328.51171875 C-49.52060024 315.63067263 -32.15428093 293.77162668 -29.921875 274.63671875 C-30.09753334 269.25330722 -32.2550972 264.7193079 -35.359375 260.38671875 C-39.95607353 256.39987923 -44.54560461 254.66257859 -50.546875 254.07421875 C-56.79756217 254.58657016 -61.54089747 256.44908981 -65.86328125 261.0546875 C-68.58485715 264.49070326 -70.61829654 268.21493952 -72.671875 272.07421875 C-78.66012071 282.9835228 -85.82874261 292.32584595 -94.359375 301.38671875 C-95.18501953 302.30904297 -95.18501953 302.30904297 -96.02734375 303.25 C-105.44285208 313.3629534 -117.95184729 319.73048833 -130.359375 325.38671875 C-131.89271484 326.09634766 -131.89271484 326.09634766 -133.45703125 326.8203125 C-166.19031082 340.66403153 -204.53946384 338.89585812 -239.359375 338.38671875 C-236.23018419 319.76229792 -236.23018419 319.76229792 -233.984375 312.57421875 C-233.76942383 311.87103516 -233.55447266 311.16785156 -233.33300781 310.44335938 C-223.46693499 278.90073239 -203.35498527 251.3729617 -176.921875 231.69921875 C-176.06372192 231.05786987 -176.06372192 231.05786987 -175.18823242 230.40356445 C-174.60662354 229.98163818 -174.02501465 229.55971191 -173.42578125 229.125 C-172.81460449 228.68051514 -172.20342773 228.23603027 -171.57373047 227.77807617 C-169.359375 226.38671875 -169.359375 226.38671875 -166.25830078 225.00512695 C-162.83339999 223.39524586 -160.15673439 221.94545645 -157.359375 219.38671875 C-155.75480792 214.54478248 -155.90000055 210.00739914 -156.109375 204.94921875 C-156.11582031 203.64533203 -156.12226562 202.34144531 -156.12890625 200.99804688 C-156.15241124 197.78961558 -156.23080505 194.59237489 -156.359375 191.38671875 C-156.96273682 191.23178955 -157.56609863 191.07686035 -158.18774414 190.91723633 C-166.09681423 188.82806178 -173.86745719 186.36346755 -181.62915039 183.7902832 C-183.78714344 183.07743338 -185.94907962 182.3775523 -188.11132812 181.67773438 C-208.24146488 175.0713055 -224.1886761 165.89341026 -234.171875 146.44921875 C-239.83298024 135.16734868 -240.82474177 124.26745498 -240.79296875 111.84375 C-240.79754076 110.26437661 -240.80284933 108.6850052 -240.80885315 107.1056366 C-240.81773168 103.81521455 -240.81541906 100.52503594 -240.80541992 97.23461914 C-240.7938957 93.03501024 -240.8142206 88.83623793 -240.84333706 84.63673878 C-240.86174232 81.38261156 -240.86139875 78.12868368 -240.85569954 74.87451744 C-240.85554707 73.32648222 -240.86152919 71.77843284 -240.87399101 70.23044777 C-240.99097311 53.33170299 -240.99097311 53.33170299 -234.79769897 46.71937561 C-228.97644074 41.66094413 -221.95365048 40.24875055 -214.61328125 38.49609375 C-213.23138584 38.15170786 -211.84990572 37.80565197 -210.46881104 37.45806885 C-206.73603851 36.52362918 -202.99793797 35.61247384 -199.25836563 34.70568848 C-195.32546903 33.74797049 -191.39778114 32.76934083 -187.46948242 31.79296875 C-180.85029143 30.15058737 -174.22796477 28.52142444 -167.60351562 26.90039062 C-158.18976635 24.5960301 -148.78484613 22.25705943 -139.38157845 19.91034698 C-132.77817242 18.26327845 -126.17315551 16.62267843 -119.56812668 14.98213196 C-117.18371323 14.38966028 -114.7995111 13.79634342 -112.41531372 13.20300293 C-108.64831777 12.26618211 -104.88008212 11.3345045 -101.11089325 10.40654755 C-99.73551565 10.06721898 -98.36051187 9.72637064 -96.98593903 9.38379669 C-76.02974704 4.16444229 -59.16138481 2.13375541 -38.8828125 11.30078125 C-38.05007813 11.65914062 -37.21734375 12.0175 -36.359375 12.38671875 C-35.67746094 12.68707031 -34.99554687 12.98742187 -34.29296875 13.296875 C-32.15424099 13.61223954 -32.15424099 13.61223954 -30.24609375 11.65625 C-29.52035156 10.84542969 -28.79460937 10.03460938 -28.046875 9.19921875 C-24.35440436 5.28130023 -21.17398741 2.74489626 -16.359375 0.38671875 C-11.67908616 -1.95342567 -4.95297926 -1.2874466 0 0 Z " fill="#FEFEFF" transform="translate(675.359375,180.61328125)"/>
<path d="M0 0 C1.77117187 0.82564453 1.77117187 0.82564453 3.578125 1.66796875 C11.12921438 5.36273153 17.69973252 9.90481299 24.375 15 C43.70469331 29.671889 64.04484016 35.45942004 88.32763672 32.73925781 C104.0391088 30.41654074 117.08501471 22.47381408 129.54956055 13.02612305 C135.71787004 8.3710575 142.12038201 4.52805737 149 1 C149.88945313 0.5361792 149.88945313 0.5361792 150.796875 0.06298828 C177.89107619 -13.78081698 210.18025702 -14.89648136 239 -6 C253.25861877 -1.29529158 266.03616491 5.8157343 277.875 15 C296.62026144 29.45966 316.3825521 34.92210345 340 33 C356.13640344 30.63996343 369.59280955 23.12487102 382.5 13.5 C409.51903656 -6.62128353 440.65950472 -14.30459291 474.21435547 -10.64990234 C498.80744607 -6.95593609 519.04494649 4.38246157 538.5871582 19.12011719 C542.27211576 21.86434783 545.91985462 24.09858403 550.0625 26.125 C555.46069715 28.8924811 558.40586667 32.55430026 561 38 C562.79065243 43.85830733 562.42421222 49.37834085 560.11328125 55.0078125 C557.10548181 60.39019044 552.85371955 64.11198147 547 66 C533.7171789 68.71487016 523.71575862 62.04955268 513 55 C509.70779479 52.70291979 506.50087899 50.30182669 503.31201172 47.86401367 C487.14597484 35.64992042 466.14643663 29.60847623 445.93261719 32.27246094 C428.68084595 34.98751901 415.89117869 42.31000206 402.15014648 52.7746582 C377.39452273 71.42622443 345.31916968 80.57464473 314.41015625 76.46875 C291.03916883 72.80601475 271.15598517 64.02992264 252.44677734 49.80175781 C241.27149287 41.33993319 229.90390785 35.65341753 216 33 C214.865625 32.773125 213.73125 32.54625 212.5625 32.3125 C188.02810637 30.16036021 168.04713745 37.91202997 148.5 52.5 C122.02412534 72.16010565 90.11491419 80.70102306 57.37182617 75.86645508 C36.3989795 72.42707908 17.51619974 64.23162286 0.74609375 51.125 C-16.62174816 37.68530441 -36.78894855 29.77633892 -59 32 C-76.68271861 34.39343553 -90.06296893 41.55440028 -104.19458008 52.12597656 C-109.3236278 55.92050716 -114.54360463 59.21183116 -120.1875 62.1875 C-120.86997803 62.549646 -121.55245605 62.91179199 -122.25561523 63.28491211 C-129.17635567 66.81757836 -136.45810014 69.62083586 -144.23046875 67.34765625 C-150.77255672 64.79437903 -155.10922937 60.97646607 -158.13671875 54.609375 C-160.07564522 48.74872848 -159.94437934 42.2669288 -157.375 36.625 C-154.31839269 30.69465932 -148.22979209 27.40556609 -142.5625 24.375 C-137.22868759 21.44540068 -132.35000524 18.17112752 -127.5 14.5 C-90.77515428 -13.05899737 -42.06411973 -19.93763141 0 0 Z " fill="#FDFEFF" transform="translate(339,824)"/>
<path d="M0 0 C4.85944368 4.29439209 9.38279539 8.31422507 9.890625 15.08203125 C9.99638991 22.08895686 9.99249102 26.93868483 4.91796875 32.21484375 C-0.17356185 36.97537619 -4.11617687 39.06060756 -11.125 39.75 C-16.89555556 39.55139579 -22.03584634 37.65650793 -26.14453125 33.5390625 C-30.77601508 27.65673998 -33.19828545 21.96744675 -32.3125 14.375 C-29.48127123 6.80555779 -26.11348304 1.98056959 -18.6875 -1.4375 C-12.39099592 -3.60788588 -5.91614344 -2.90225905 0 0 Z " fill="#019CFF" transform="translate(551.3125,224.625)"/>
</svg>
